-
 
http://www.Speed. Cd       the fast  and The Hottest Private Tracker on the net 
http://www.Speed. Cd

Please Seed back to make the speed Faster!!
 ............ NFO .............
-
 
http://www.Speed. CdThe Host 2013 720p HDRiP READNFO XViD - JUSTiCE



SOURCE : The.Host.2013.720p.KOR.HDRip.H264-KTH


Video and audio both cleaned and given justice.
Check sample and see.....


Readnfo : 

Well considering the bottom line of subs were on the black borders and only the top line
was actually on the video we have opted to crop the video to clear all subs.
Also have changed the brightness,contrast,rgb colours aswell as resized and added some sharpness...
all only small tweaks ,but for the better IMHO.


Audio was decent but there seemed to be some noise in the background,so cleaned it all up in Adobe
changing the eq bands and lowering the DB's a touch.
Will be honest and say not all the noise/hiss has gone because there is like a weird alien spooky sound in 
parts of the video and soon has you start cleaning too much you end up wrecking it,so have just done a low
clean up so not to mess up what should be there ;-)

Oh 720p will be coming aswell aslong as retail doesn't hit before the next day or so.....


Video
ID                               : 0
Format                           : MPEG-4 Visual
Format profile                   : Advanced Simple@L5
Format settings, BVOP            : 2
Format settings, QPel            : No
Format settings, GMC             : No warppoints
Format settings, Matrix          : Default (MPEG)
Muxing mode                      : Packed bitstream
Codec ID                         : XVID
Codec ID/Hint                    : XviD
Duration                         : 2h 10mn
Bit rate                         : 3 017 Kbps
Width                            : 1 280 pixels
Height                           : 480 pixels
Display aspect ratio             : 2.667
Frame rate                       : 29.970 fps
Color space                      : YUV
Chroma subsampling               : 4:2:0
Bit depth                        : 8 bits
Scan type                        : Progressive
Compression mode                 : Lossy
Bits/(Pixel*Frame)               : 0.164
Stream size                      : 2.75 GiB (96%)
Writing library                  : XviD 64

Audio
ID                               : 1
Format                           : MPEG Audio
Format version                   : Version 1
Format profile                   : Layer 3
Mode                             : Joint stereo
Mode extension                   : MS Stereo
Codec ID                         : 55
Codec ID/Hint                    : MP3
Duration                         : 2h 10mn
Bit rate mode                    : Constant
Bit rate                         : 128 Kbps
Channel(s)                       : 2 channels
Sampling rate                    : 48.0 KHz
Compression mode                 : Lossy
Stream size                      : 120 MiB (4%)
Alignment                        : Split accross interleaves
Interleave, duration             : 33 ms (1.00 video frame)
Interleave, preload duration     : 500 ms



[IMG]http://lookpic.com/O/i2/456/Jct7hba.png[/IMG]
[IMG]http://lookpic.com/O/i2/290/eBeXUYwg.png[/IMG]
[IMG]http://lookpic.com/O/i2/335/m21RGFnr.png[/IMG]
[IMG]http://lookpic.com/O/i2/1726/khMVC1YL.png[/IMG]
[IMG]http://lookpic.com/O/i2/611/IdjHwNEY.png[/IMG]